<svg width="208" height="205" viewBox="0 0 208 205" fill="none" xmlns="http://www.w3.org/2000/svg">
<g clip-path="url(#clip0_5_8149)">
<path d="M98.5765 0C104.351 0 110.119 0 115.893 0C116.567 0.138781 117.241 0.333074 117.922 0.409403C151.006 4.27445 176.494 20.0885 193.804 48.6427C202.003 62.1738 206.312 77.0164 208.007 92.6639V109.956C207.632 112.343 207.25 114.723 206.881 117.11C198.258 172.733 146.253 211.585 90.4742 204.07C31.8815 196.174 -8.54003 141.876 1.54276 83.8305C7.61606 48.8439 27.0798 24.0438 60.3578 10.4502C72.699 5.40551 85.2486 1.3323 98.5765 0ZM156.454 102.892C156.996 102.601 157.732 102.268 158.399 101.837C162.36 99.2629 166.349 96.7302 170.24 94.0656C175.605 90.3948 175.563 90.3532 173.576 84.0387C173.332 83.2754 173.346 82.3941 172.957 81.728C171.949 79.9794 172.45 78.7234 174.215 78.2377C176.32 77.6617 176.022 76.6486 175.215 75.2261C169.045 64.3526 161.658 54.409 152.798 45.5548C151.506 44.2641 150.408 44.0906 148.914 45.2286C145.613 47.7406 142.257 50.1762 138.859 52.5493C137.407 53.5624 137.066 54.5547 137.657 56.3172C138.915 60.0782 138.373 60.897 134.28 61.5354C132.278 61.8476 131.875 62.3334 133.085 64.0612C141.27 75.7951 148.421 88.1258 154.376 101.143C154.744 101.941 155.015 102.941 156.44 102.892H156.454ZM81.1002 140.682C81.7325 143.957 84.651 144.915 86.1589 147.024C86.6245 147.677 87.368 148.391 86.7982 149.169C86.0964 150.133 85.1514 149.543 84.3314 149.12C82.7471 148.287 81.802 146.865 80.711 145.512C79.0225 143.423 77.452 140.696 74.0818 141.529C67.5986 143.132 61.1709 144.943 54.7015 146.587C52.7767 147.073 52.2068 147.996 53.0755 149.807C59.121 162.471 66.6396 174.107 76.8614 183.864C77.9593 184.911 79.1684 185.168 80.6624 184.828C88.195 183.128 95.6233 181.081 102.996 178.791C105.289 178.083 105.623 177.216 104.191 175.19C98.924 167.758 94.3378 159.889 90.4255 151.68C88.2853 147.205 85.6725 143.388 81.1002 140.682ZM120.472 93.2537C121.605 93.7464 122.008 93.9199 122.411 94.0934C123.711 94.6346 125.913 94.364 125.774 96.3555C125.663 98.0209 124.051 98.9576 122.321 99.2768C121.869 99.3601 121.41 99.4711 120.994 99.6515C119.048 100.526 117.568 101.546 119.923 103.6C120.723 104.301 120.994 105.154 120.271 106.029C116.657 110.407 117.936 114.758 120.118 119.233C120.994 121.024 121.939 121.294 123.641 120.476C133.105 115.931 142.465 111.198 151.562 105.959C153.306 104.953 153.709 103.829 152.861 102.011C146.468 88.2923 139.005 75.1984 130.083 62.9579C128.568 60.8831 126.671 60.1962 124.086 61.6464C118.666 64.6996 113.1 67.496 107.61 70.4451C106.783 70.8892 105.373 71.0211 105.755 72.4852C105.866 72.9085 106.533 73.4081 107.006 73.4775C108.152 73.6579 108.555 72.7142 108.903 71.8399C109.91 69.3002 111.481 69.4251 113.086 71.139C115.9 74.1436 118.555 77.0997 122.856 78.2932C124.676 78.7928 125.517 81.4504 127.261 82.7758C128.109 83.4211 127.553 84.6285 127.088 85.6347C125.719 88.5976 123.975 91.2206 120.472 93.2468V93.2537ZM147.413 143.284C150.464 145.283 152.84 142.514 155.578 142.111C160.512 141.397 161.137 141.702 161.339 146.698C161.373 147.538 161.234 148.364 162.346 148.544C163.958 148.808 166.814 146.219 166.55 144.61C164.521 132.147 160.533 120.267 155.738 108.631C155.078 107.035 154.063 106.528 152.486 107.451C143.313 112.801 133.835 117.554 124.273 122.148C122.821 122.849 122.154 123.841 122.904 125.479C124.148 128.199 125.212 131.016 126.622 133.646C127.102 134.541 127.366 136.137 129.158 135.887C131.736 135.526 130.743 137.032 130.194 138.128C129.36 139.78 130.444 145.741 132.306 147.08C134.05 148.336 136.003 147.635 137.963 146.747C140.985 145.373 144.203 144.436 147.413 143.284ZM181.462 92.8652C181.365 91.748 181.685 90.374 180.594 89.6871C179.294 88.8683 178.509 90.2422 177.668 90.8806C171.685 95.391 165.501 99.603 159.094 103.489C157.517 104.446 156.231 105.328 157.176 107.555C162.054 119.018 165.953 130.794 168.142 143.09C168.468 144.922 169.392 144.797 171.088 144.693C177.814 144.297 182.498 140.162 187.425 136.415C191.233 133.521 191.622 130.836 188.905 126.742C188.314 125.853 187.876 124.903 187.869 123.855C187.855 121.454 186.493 120.184 184.513 119.102C176.709 114.848 174.437 104.37 179.725 97.2298C180.705 95.9044 181.664 94.6346 181.469 92.8652H181.462ZM37.0722 124.681C35.342 123.078 35.3211 120.934 34.7444 119.018C34.4803 118.151 34.5776 117.096 33.6534 116.597C29.1158 114.161 30.6862 107.798 26.3224 105.231C26.0653 105.078 26.0236 104.342 26.1 103.912C26.4405 101.99 25.2175 100.672 24.4045 99.1727C22.8618 96.3277 20.3325 97.6739 18.22 97.7988C16.2257 97.9168 16.2604 99.7417 16.2187 101.254C15.8018 116.298 18.4424 130.794 23.8903 144.818C24.7728 147.094 26.1417 148.065 28.546 148.031C34.2024 147.947 39.8031 147.378 45.397 146.532C48.3711 146.081 49.1077 145.206 47.8986 142.292C44.0558 133.021 41.2277 123.418 39.3723 113.543C39.1638 112.419 38.9067 111.261 38.4203 110.247C38.0451 109.47 37.0792 108.957 36.7179 110.247C36.1689 112.197 35.071 113.995 36.1967 116.319C37.4336 118.866 37.3224 121.822 37.0722 124.681ZM75.7357 185.508C73.5746 183.156 71.754 181.255 70.0168 179.277C62.4286 170.631 56.4387 160.958 51.4911 150.612C50.8101 149.182 50.3446 147.517 48.0931 147.919C41.6168 149.078 35.0779 149.779 28.5113 150.126C26.8505 150.216 26.5378 151.042 27.2605 152.423C30.4152 158.439 33.2156 164.74 38.3647 169.389C45.1607 175.523 52.9156 180.276 60.8651 184.8C65.7224 187.562 70.26 187.007 75.7287 185.508H75.7357ZM88.9246 47.9002C86.1103 47.2757 86.8816 48.7884 87.6529 50.3427C90.1754 55.3943 92.6839 60.4529 95.1855 65.5115C97.3952 69.9802 101.328 71.486 105.776 69.2724C111.453 66.4413 117.033 63.4297 122.633 60.446C123.926 59.759 125.538 59.1067 125.142 57.1777C124.788 55.436 123.634 54.4159 121.807 54.1314C120.493 53.9233 119.11 53.382 119.291 51.8138C119.59 49.1353 117.915 47.463 116.456 45.7768C111.613 40.1978 106.38 35.0005 100.828 30.1224C99.334 28.8109 97.6107 27.9088 95.7901 27.1525C94.5323 26.632 93.3788 26.5835 92.1489 27.2357C88.5841 29.1301 85.0124 31.0036 81.4059 32.8216C79.8285 33.6196 79.5019 34.6674 80.3775 36.1732C80.8987 37.0683 81.3573 37.9982 81.8576 38.9072C83.0598 41.086 84.387 41.9257 86.2215 39.4415C87.0901 38.2619 88.6744 37.1377 89.7029 38.3659C91.5652 40.5864 93.7888 40.4754 96.2 40.517C97.4717 40.5448 98.6738 40.9958 99.3965 42.2518C101.613 46.0821 105.477 47.3034 109.396 48.0875C111.404 48.49 112.37 48.9688 111.863 51.106C111.446 52.8824 111.182 54.7837 108.597 53.2224C108.09 52.9171 107.388 52.82 107.075 53.4445C106.651 54.3118 107.443 54.6657 108.027 54.9919C109.438 55.776 110.959 56.3866 112.273 57.3026C114.003 58.503 115.365 59.9186 112.175 61.0982C111.668 61.2856 111.043 61.348 111.043 62.1391C111.043 64.8731 111.022 64.9286 108.333 64.2C107.165 63.8877 106.081 63.8114 104.956 64.2555C101.731 65.5253 99.5077 62.4513 96.5475 62.2501C95.5538 62.1807 95.8873 60.6056 96.339 59.5647C98.646 54.2563 94.8798 48.261 88.9246 47.8794V47.9002ZM40.0047 47.0397C38.3647 47.1369 36.9055 47.3242 35.4462 47.2965C31.3186 47.2202 28.8865 48.9549 27.1006 52.9102C21.4582 65.4004 17.9559 78.4042 16.5106 91.9839C16.3786 93.1913 15.9755 94.6832 17.3861 95.4118C19.033 96.2583 20.8467 95.8698 22.3685 95.0787C23.8764 94.2946 22.9174 92.7749 22.7576 91.63C22.1461 87.3 22.8549 86.2522 27.0798 85.6555C31.8467 84.9824 36.2175 80.3957 36.6206 75.6078C36.9055 72.1729 36.6414 68.5993 37.5309 65.338C39.1569 59.3704 36.9333 52.9865 40.0047 47.0397ZM91.579 150.202C96.1444 159.14 100.891 167.633 106.602 175.572C107.485 176.8 108.645 176.89 109.98 176.37C116.637 173.774 123.308 171.2 129.965 168.605C130.93 168.23 132.195 167.779 131.674 166.468C130.368 163.151 128.943 159.875 127.386 156.67C126.469 154.782 124.385 156.135 122.981 155.483C122.147 155.101 121.397 154.491 120.535 154.241C115.983 152.923 111.543 151.771 106.735 153.873C102.961 155.525 100.633 156.545 97.1173 152.576C95.7623 151.042 94.1849 150.091 91.579 150.209V150.202ZM72.0597 140.37C68.1962 135.061 62.4425 131.876 60.6636 125.52C60.3856 124.535 59.9826 123.543 59.4198 122.696C55.8828 117.415 51.0742 113.321 46.5296 108.971C44.848 107.361 43.1664 109.172 41.4014 108.797C40.3104 108.568 40.6231 110.664 40.8246 111.719C42.8884 122.37 45.8764 132.744 49.9485 142.812C50.7684 144.852 51.9636 145.401 53.9441 144.901C59.9687 143.381 65.9934 141.883 72.0736 140.363L72.0597 140.37ZM127.79 195.389C131.75 194.702 136.253 193.787 140.631 192.322C142.188 191.802 142.542 190.824 141.91 189.387C139.318 183.496 136.719 177.605 134.134 171.706C133.397 170.027 132.32 169.576 130.548 170.291C124.253 172.824 117.936 175.308 111.592 177.73C109.709 178.444 109.201 179.263 110.577 180.97C114.413 185.737 118.506 190.241 123.44 193.904C124.551 194.73 125.705 195.521 127.783 195.396L127.79 195.389ZM4.64195 89.9577C4.3223 93.6631 7.24777 94.0587 9.76325 94.7526C13.5504 95.8004 14.2731 95.3493 14.6969 91.5467C16.2674 77.3772 19.9225 63.8114 26.1556 50.9534C26.6837 49.857 28.5599 48.3651 26.1903 47.2548C24.3211 46.3736 22.431 45.5687 20.8536 48.1361C18.3242 52.251 15.8018 56.3658 13.7241 60.7305C9.29768 70.0218 6.21239 79.7295 4.65584 89.9577H4.64195ZM122.96 195.854C116.991 191.233 112.419 186.251 108.256 180.887C107.45 179.846 106.526 179.513 105.247 179.922C97.6871 182.33 90.0781 184.585 82.3162 186.278C81.1419 186.535 80.5304 187.132 81.6908 188.083C85.1583 190.921 88.5007 194.369 92.9549 195.209C102.579 197.013 112.328 197.672 122.953 195.861L122.96 195.854ZM3.66216 101.914C4.75313 117.346 9.7563 131.876 18.0046 145.352C18.8593 146.74 20.0128 148.419 21.7987 147.406C23.4247 146.483 21.9932 144.901 21.5555 143.735C16.4689 130.343 14.2244 116.43 14.1966 102.184C14.1966 98.6801 13.6685 96.6608 9.7841 96.6608C7.87316 96.6608 5.8302 94.2877 4.40568 95.5436C2.96727 96.8135 3.94706 99.4711 3.65521 101.907L3.66216 101.914ZM77.1115 61.2578C78.133 59.6202 77.2227 57.9271 77.7161 56.4213C78.265 54.7421 79.0086 53.2155 81.128 54.6172C84.1368 56.6087 84.5676 60.8345 82.1147 63.4644C80.7805 64.8939 78.6681 66.6286 79.3769 68.3495C80.8361 71.8884 79.7868 75.1151 79.3143 78.4597C79.0364 80.4235 79.7729 80.7288 81.4198 80.0418C84.1855 78.8899 86.9511 77.7311 89.7515 76.6556C91.4748 75.9963 91.6694 75.011 90.9328 73.422C90.0295 71.4651 89.5917 69.321 86.4577 70.23C85.4363 70.5284 83.3794 70.6047 83.1084 68.6895C82.893 67.1629 82.6359 65.2963 84.6024 64.5261C86.4925 63.7836 86.1103 62.6318 85.5613 61.2023C83.6157 56.0882 81.663 51.2587 75.5411 49.3921C73.2132 48.6774 71.5177 44.7776 73.6163 41.773C74.3111 40.7738 76.5209 40.1215 75.2006 38.4908C73.8039 36.763 72.2543 38.5949 70.8367 39.0182C70.0098 39.268 69.3775 40.1146 68.5644 40.5101C66.3617 41.5718 65.6598 44.5972 62.512 44.6319C61.2612 44.6458 60.6289 46.5263 61.4349 48.039C63.7072 52.3204 68.6339 53.9302 71.344 57.7952C71.7123 58.3226 72.3238 57.8438 72.8241 57.4622C74.8879 55.894 75.965 56.4421 76.0136 59.0373C76.0275 59.8214 75.8677 60.6888 77.1115 61.2648V61.2578ZM177.224 60.3211C176.258 57.3165 175.368 54.2841 174.291 51.3211C173.909 50.2803 173.013 49.4406 172.45 48.4553C171.018 45.9295 169.969 43.4314 170.713 40.3019C171.553 36.763 168.274 31.7808 164.896 30.8579C164.5 30.7469 163.805 30.733 163.639 30.962C162.006 33.2241 159.032 34.7229 159.052 37.9357C159.08 41.2595 159.101 44.3127 153.966 43.9519C157.69 48.15 161.005 51.8832 164.278 55.5678C165.244 55.2209 165.272 54.4506 165.55 53.8539C166.258 52.3342 166.919 52.2301 167.877 53.729C168.913 55.3388 170.949 56.1785 171.449 58.2532C171.63 59.0165 172.318 59.5786 172.992 59.2663C174.757 58.4614 175.591 59.9117 177.224 60.3141V60.3211ZM140.284 27.9088C144.369 27.6798 144.752 29.1093 143.348 31.8016C142.438 33.5572 143.911 36.0414 145.78 36.0483C149.567 36.0552 153.16 33.46 157.121 35.1948C157.378 35.3058 158.073 34.6397 158.455 34.2303C159.24 33.3907 159.9 32.44 160.699 31.6143C162.471 29.7962 162.325 28.4709 160.136 26.9651C155.008 23.447 149.755 20.144 144.154 17.4378C142.16 16.4733 140.902 15.2381 138.227 18.0901C135.197 21.3167 137.393 20.6645 139.172 21.4C142.174 22.6421 143.008 25.5634 140.284 27.9088ZM124.628 150.876C123.926 147.614 122.119 144.929 121.07 141.973C119.722 138.17 116.56 135.998 113.878 133.32C109.736 129.184 106.352 136.005 102.398 133.854C101.724 133.486 100.765 134.062 100.39 134.846C99.4521 136.775 97.7496 138.843 99.1463 140.946C100.814 143.458 102.183 146.462 105.275 147.656C106.47 148.121 107.443 147.274 108.117 146.212C109.194 144.512 111.036 144.089 112.78 143.506C113.628 143.222 114.809 143.319 114.816 144.138C114.851 147.51 116.894 146.761 118.992 146.615C120.396 146.518 121.494 147.579 122.349 148.752C122.911 149.522 123.03 150.771 124.621 150.882L124.628 150.876ZM133.918 5.1904C136.066 8.11174 136.114 11.6923 139.116 13.0523C147.121 16.6814 154.758 20.9351 161.881 26.0908C162.694 26.6806 163.409 27.0345 164.181 25.8965C165.55 23.8634 165.084 19.8318 162.999 18.4023C154.272 12.4417 144.786 8.11174 133.925 5.1904H133.918ZM13.6338 148.197C19.9711 160.826 28.3167 171.096 38.8372 179.638C39.3723 180.075 39.9838 180.575 40.6787 180.061C41.3875 179.541 41.457 178.68 41.4709 177.868C41.4848 176.446 40.3799 175.648 39.6294 174.649C33.2504 166.176 24.8284 159.431 19.0886 150.404C18.0324 148.738 16.2396 148.232 13.6338 148.19V148.197ZM173.353 170.936C184.576 162.256 189.669 151.028 190.01 136.352C186.424 140.745 180.399 141.112 180.309 148.266C180.26 151.896 179.593 155.879 179.739 159.646C179.829 162.075 179.413 163.56 177.342 164.719C175.083 165.982 173.332 167.668 173.346 170.929L173.353 170.936ZM54.5903 18.2774C45.397 25.1054 38.2813 33.7584 32.347 43.4384C31.9648 44.0698 31.3255 44.8192 32.4791 45.4507C34.8139 46.7344 41.6793 44.7013 42.5132 42.3073C45.4734 33.7792 49.3995 25.7646 54.5903 18.2774ZM43.6945 50.086C41.7141 52.7991 40.4285 55.8662 40.8802 56.7405C42.2213 59.3288 48.3502 60.8692 50.9074 58.9194C53.7842 56.7266 55.9384 56.345 57.7242 60.0157C58.0717 60.7235 58.8222 61.3619 59.7047 61.0982C60.9555 60.7235 60.6011 59.5994 60.3787 58.7737C59.5587 55.6858 59.2321 52.5632 59.3572 49.3713C59.392 48.4761 59.2599 47.4491 58.8222 46.6997C58.03 45.3397 56.2789 44.8123 55.6257 46.2279C54.4652 48.7467 52.7072 50.4607 50.6711 52.1885C48.8783 53.7082 49.0729 53.9094 47.2662 52.7783C47.0438 52.6395 46.5783 52.6326 46.349 52.7783C41.9712 55.4776 44.0767 51.5085 43.6875 50.0999L43.6945 50.086ZM98.3681 92.6639C98.5974 92.4904 98.8198 92.317 99.0491 92.1435C97.3535 88.209 95.6024 84.2954 93.9834 80.3332C93.1078 78.1752 91.8848 77.5854 89.7098 78.5777C86.9928 79.8198 84.1716 80.8329 81.4129 81.9986C80.2733 82.4774 78.9113 82.8035 78.8279 84.4203C78.7445 85.94 79.8285 86.5784 80.9404 87.2792C81.7325 87.7788 82.483 88.1813 83.435 88.3201C85.471 88.6115 87.4097 88.8405 89.5361 88.4311C93.2537 87.7164 95.8317 90.3116 98.3681 92.6709V92.6639ZM59.8367 189.935C68.0363 195.896 76.6182 198.942 85.9366 200.039C87.2916 200.198 89.0775 201.17 89.682 198.942C90.3352 196.555 88.4034 196.34 86.8538 195.979C80.3219 194.473 73.9429 192.489 67.7931 189.831C65.3054 188.756 62.9081 188.943 59.8367 189.928V189.935ZM134.975 47.5949C135.301 48.6704 135.531 50.197 136.767 50.9048C137.949 51.5779 138.901 50.4052 139.804 49.7668C142.431 47.9071 144.974 45.9364 147.601 44.0768C149.06 43.0429 149.359 42.0644 147.851 40.8293C147.052 40.177 146.357 39.3999 145.579 38.7129C142.396 35.928 139.95 36.4207 138.241 40.1909C137.671 41.433 136.886 42.5849 136.156 43.7506C135.468 44.8539 135.121 46.0475 134.968 47.5949H134.975ZM46.8979 21.629C38.8164 27.0137 32.0065 33.6543 26.0514 41.1693C25.2661 42.1616 23.2093 43.362 25.2731 44.7984C26.92 45.9434 28.817 45.8323 30.0261 43.7992C34.8139 35.7638 40.5536 28.4709 46.8979 21.629ZM79.7452 31.5934C83.0389 30.053 86.6037 28.6513 89.6264 26.3614C90.9814 25.3344 89.4666 24.5226 88.6397 24.127C86.965 23.3152 85.061 23.4401 83.2752 23.0792C81.6144 22.7462 79.5089 22.2049 81.5866 19.7693C82.3162 18.9089 82.7123 17.9444 81.7673 17.0215C80.6554 15.9459 79.898 17.1741 79.0711 17.6182C77.8551 18.2774 77.3617 19.2073 77.6396 20.7408C78.2025 23.8148 79.6131 26.8541 77.8829 30.0946C77.3478 31.1008 78.5222 31.6004 79.7382 31.5934H79.7452ZM152.048 183.059L152.52 182.934C151.27 180.026 150.373 176.883 148.608 174.329C147.823 173.191 145.099 172.803 143.529 173.656C142.215 174.371 143.501 175.939 143.841 177.07C144.807 180.242 145.863 183.392 146.934 186.528C147.281 187.541 147.351 189.075 149.046 188.582C150.332 188.208 151.798 187.77 152.027 186.119C152.166 185.12 152.055 184.079 152.055 183.059H152.048ZM46.0085 43.7229C48.9687 42.911 51.8316 42.0991 54.7084 41.3428C56.0148 41.0028 56.8556 40.0729 57.7729 39.1986C58.5511 38.4562 58.4817 37.4777 58.3079 36.6173C58.0647 35.4238 57.0085 36.0969 56.2928 35.9789C54.0135 35.6111 51.5467 36.6867 49.4482 34.7021C48.6004 33.9041 47.433 34.6744 46.9813 35.7638C46.1544 37.7831 45.397 39.8301 44.6743 41.884C44.2365 43.1331 44.5214 43.9449 46.0015 43.7159L46.0085 43.7229ZM49.1285 31.191C51.6023 31.9335 53.8607 31.2326 56.0565 31.0453C57.5019 30.9204 59.7116 29.3868 58.6484 27.7908C56.5707 24.6683 57.7312 22.5449 59.1835 19.7485C59.8158 18.5342 60.9763 16.9035 60.7261 14.5095C55.7299 19.693 52.0957 25.1263 49.1355 31.191H49.1285ZM189.829 150.487C194.561 143.416 198.105 135.894 200.732 127.22C195.68 131.384 191.239 134.937 191.441 141.765C191.531 144.658 190.399 147.579 189.822 150.494L189.829 150.487ZM90.3144 66.1776C90.0434 67.7805 91.0092 69.1475 91.6416 70.5908C91.9612 71.3333 92.1002 72.7281 93.4066 72.0758C94.4767 71.5484 95.7414 70.7851 94.9284 69.1406C91.9334 63.0828 88.9315 57.025 85.9157 50.9811C85.5266 50.197 84.9012 49.6627 83.97 50.0374C82.8999 50.4607 83.1362 51.3766 83.5253 52.0636C85.7281 55.9772 85.9574 60.9664 90.0364 63.86C90.8286 64.422 90.634 65.2686 90.3074 66.1776H90.3144ZM192.838 131.8C196.097 129.205 198.786 126.415 201.204 123.348C202.059 122.266 203.157 120.843 202.559 119.643C201.725 117.978 200.433 119.99 199.286 119.865C198.494 119.775 197.688 119.782 196.896 119.678C196.166 119.58 195.492 119.56 195.166 120.371C193.734 123.897 191.059 127.144 192.838 131.807V131.8ZM189.523 80.701C191.587 81.0827 192.066 82.8105 192.935 84.1775C194.394 86.4604 196.958 85.2114 198.828 86.1482C199.55 84.1497 200.294 82.2345 199.453 79.9863C198.8 78.2515 196.729 80.2361 196.27 78.4666C194.846 73.0126 193.199 77.0927 191.677 78.4042C190.989 78.994 190.426 79.7295 189.523 80.701ZM134.975 169.215C137.893 175.821 140.819 182.427 143.744 189.033C143.973 189.561 144.258 190.227 144.932 190.102C145.933 189.915 145.655 189.047 145.502 188.43C144.272 183.635 143.084 178.743 140.659 174.461C139.484 172.387 138.4 169.653 134.975 169.215ZM46.6408 67.2393C44.709 67.4683 45.2232 70.7643 42.9162 69.7651C40.7343 68.8214 40.7899 66.7327 40.8177 64.7273C40.8385 63.5824 40.9497 62.3681 39.7337 61.1537C39.3167 65.109 38.9206 68.752 38.5593 72.395C38.3439 74.5183 39.3862 74.8653 41.0192 73.9216C41.9156 73.4081 42.7842 72.4019 43.7848 73.1028C46.078 74.6918 48.1348 73.5954 50.2195 72.8877C48.5865 71.2639 46.1058 70.2161 46.6408 67.2323V67.2393ZM125.378 136.852C125.357 135.762 123.822 135.998 124.002 134.95C124.572 131.592 122.189 129.17 121.278 126.284C120.757 124.646 119.778 124.16 118.124 124.924C116.505 125.673 116.247 126.742 116.928 128.254C117.776 130.135 118.798 131.96 119.388 133.917C120.389 137.206 122.55 137.553 125.378 136.852ZM68.4741 34.8825C67.0704 34.5634 66.5701 34.036 66.9037 32.44C67.3831 30.1293 67.404 27.7076 67.4665 25.3344C67.5569 21.858 65.1109 19.6999 62.4703 20.8726C64.1102 21.8302 66.2435 22.2674 65.8613 24.9736C65.5139 27.4717 65.2082 29.8517 62.1507 30.4138C61.0249 30.622 60.615 31.302 60.615 32.3498C60.615 33.2866 60.6289 34.6883 61.6156 34.6397C63.8601 34.5356 65.91 36.763 68.4741 34.8756V34.8825ZM20.5201 43.3967C12.8416 53.1947 7.97045 64.2624 5.42717 76.378C7.03235 72.5823 8.32484 68.6479 9.95087 64.8661C11.5422 61.1676 13.5365 57.6426 15.2459 53.9996C16.9206 50.426 20.0615 47.5671 20.5131 43.4037L20.5201 43.3967ZM181.921 79.3548C181.963 80.7426 182.102 82.1513 183.019 83.2476C183.443 83.7542 184.096 83.317 184.52 82.9076C186.334 81.1451 188.14 79.3757 189.933 77.5993C190.739 76.8013 190.649 76.0033 189.926 75.1775C189.19 74.3379 188.738 73.1166 187.341 73.1583C186.215 73.193 181.921 78.1544 181.921 79.3548ZM130.889 148.919C129.7 145.921 128.853 142.361 125.531 140.404C124.475 139.78 122.557 139.405 123.037 141.452C123.78 144.637 125.225 147.684 127.039 150.452C127.706 151.472 128.88 151.056 129.874 150.73C130.611 150.487 131.035 150.043 130.882 148.919H130.889ZM62.1715 57.9479C62.5467 60.0851 62.8594 62.2432 63.325 64.3665C63.5543 65.3935 63.1165 67.5932 65.1665 66.6217C66.6883 65.9 69.6624 66.1776 69.0161 62.8677C68.4324 59.8908 65.5 59.1067 63.9852 57.0181C63.6655 56.574 63.2277 56.0119 62.5745 56.4005C62.0047 56.7405 62.1715 57.3997 62.1646 57.9618L62.1715 57.9479ZM122.967 198.248C115.045 198.935 107.054 198.921 99.056 198.214C107.026 202.682 114.969 199.712 122.967 198.248Z" fill="#4BC3F1"/>
</g>
<defs>
<clipPath id="clip0_5_8149">
<rect width="208" height="205" fill="white"/>
</clipPath>
</defs>
</svg>
