<svg width="100%" height="45" viewBox="0 0 430 45" fill="none" xmlns="http://www.w3.org/2000/svg">
<path opacity="0.47" d="M433.46 40.7364C386.61 15.7054 329.763 4.5105 274.253 9.60002C241.546 12.6002 210.76 22.4677 179.72 30.9401C148.902 39.3549 117.385 45.7108 84.7054 43.845C53.352 42.0571 22.7067 33.9606 -3.99999 20.2599L-3.99999 11.239C20.8918 24.8483 49.6128 33.4628 79.3234 35.8705C112.245 38.5422 143.786 32.6637 174.928 24.2489C205.961 15.8646 236.497 6.07156 269.043 2.52278C298.965 -0.738163 329.548 0.684057 358.93 6.36616C385.202 11.4489 410.481 20.0296 433.46 31.7494L433.46 40.7331L433.46 40.7364Z" fill="#9E237D"/>
</svg>
